<svg class="rich-terminal" viewBox="0 0 994 220.79999999999998" xmlns="http://www.w3.org/2000/svg">
    <!-- Generated with Rich https://www.textualize.io -->
    <style>

    @font-face {
        font-family: "Fira Code";
        src: local("FiraCode-Regular"),
                url("https://cdnjs.cloudflare.com/ajax/libs/firacode/6.2.0/woff2/FiraCode-Regular.woff2") format("woff2"),
                url("https://cdnjs.cloudflare.com/ajax/libs/firacode/6.2.0/woff/FiraCode-Regular.woff") format("woff");
        font-style: normal;
        font-weight: 400;
    }
    @font-face {
        font-family: "Fira Code";
        src: local("FiraCode-Bold"),
                url("https://cdnjs.cloudflare.com/ajax/libs/firacode/6.2.0/woff2/FiraCode-Bold.woff2") format("woff2"),
                url("https://cdnjs.cloudflare.com/ajax/libs/firacode/6.2.0/woff/FiraCode-Bold.woff") format("woff");
        font-style: bold;
        font-weight: 700;
    }

    .terminal-951283489-matrix {
        font-family: Fira Code, monospace;
        font-size: 20px;
        line-height: 24.4px;
        font-variant-east-asian: full-width;
    }

    .terminal-951283489-title {
        font-size: 18px;
        font-weight: bold;
        font-family: arial;
    }

    .terminal-951283489-r1 { fill: #f8f8f2 }
.terminal-951283489-r2 { fill: #c5c8c6 }
.terminal-951283489-r3 { fill: #a6e22e }
.terminal-951283489-r4 { fill: #f92672 }
    </style>

    <defs>
    <clipPath id="terminal-951283489-clip-terminal">
      <rect x="0" y="0" width="975.0" height="169.79999999999998" />
    </clipPath>
    <clipPath id="terminal-951283489-line-0">
    <rect x="0" y="1.5" width="976" height="24.65"/>
            </clipPath>
<clipPath id="terminal-951283489-line-1">
    <rect x="0" y="25.9" width="976" height="24.65"/>
            </clipPath>
<clipPath id="terminal-951283489-line-2">
    <rect x="0" y="50.3" width="976" height="24.65"/>
            </clipPath>
<clipPath id="terminal-951283489-line-3">
    <rect x="0" y="74.7" width="976" height="24.65"/>
            </clipPath>
<clipPath id="terminal-951283489-line-4">
    <rect x="0" y="99.1" width="976" height="24.65"/>
            </clipPath>
<clipPath id="terminal-951283489-line-5">
    <rect x="0" y="123.5" width="976" height="24.65"/>
            </clipPath>
    </defs>

    <rect fill="#292929" stroke="rgba(255,255,255,0.35)" stroke-width="1" x="1" y="1" width="992" height="218.8" rx="8"/>
            <g transform="translate(26,22)">
            <circle cx="0" cy="0" r="7" fill="#ff5f57"/>
            <circle cx="22" cy="0" r="7" fill="#febc2e"/>
            <circle cx="44" cy="0" r="7" fill="#28c840"/>
            </g>
        
    <g transform="translate(9, 41)" clip-path="url(#terminal-951283489-clip-terminal)">
    <rect fill="#272822" x="0" y="1.5" width="85.4" height="24.65" shape-rendering="crispEdges"/><rect fill="#272822" x="85.4" y="1.5" width="12.2" height="24.65" shape-rendering="crispEdges"/><rect fill="#272822" x="97.6" y="1.5" width="48.8" height="24.65" shape-rendering="crispEdges"/><rect fill="#272822" x="146.4" y="1.5" width="12.2" height="24.65" shape-rendering="crispEdges"/><rect fill="#272822" x="158.6" y="1.5" width="12.2" height="24.65" shape-rendering="crispEdges"/><rect fill="#272822" x="170.8" y="1.5" width="122" height="24.65" shape-rendering="crispEdges"/><rect fill="#272822" x="292.8" y="1.5" width="683.2" height="24.65" shape-rendering="crispEdges"/><rect fill="#272822" x="0" y="25.9" width="48.8" height="24.65" shape-rendering="crispEdges"/><rect fill="#272822" x="48.8" y="25.9" width="48.8" height="24.65" shape-rendering="crispEdges"/><rect fill="#272822" x="97.6" y="25.9" width="48.8" height="24.65" shape-rendering="crispEdges"/><rect fill="#272822" x="146.4" y="25.9" width="12.2" height="24.65" shape-rendering="crispEdges"/><rect fill="#272822" x="158.6" y="25.9" width="48.8" height="24.65" shape-rendering="crispEdges"/><rect fill="#272822" x="207.4" y="25.9" width="12.2" height="24.65" shape-rendering="crispEdges"/><rect fill="#272822" x="219.6" y="25.9" width="12.2" height="24.65" shape-rendering="crispEdges"/><rect fill="#272822" x="231.8" y="25.9" width="122" height="24.65" shape-rendering="crispEdges"/><rect fill="#272822" x="353.8" y="25.9" width="622.2" height="24.65" shape-rendering="crispEdges"/><rect fill="#272822" x="0" y="50.3" width="97.6" height="24.65" shape-rendering="crispEdges"/><rect fill="#272822" x="97.6" y="50.3" width="48.8" height="24.65" shape-rendering="crispEdges"/><rect fill="#272822" x="146.4" y="50.3" width="12.2" height="24.65" shape-rendering="crispEdges"/><rect fill="#272822" x="158.6" y="50.3" width="12.2" height="24.65" shape-rendering="crispEdges"/><rect fill="#272822" x="170.8" y="50.3" width="122" height="24.65" shape-rendering="crispEdges"/><rect fill="#272822" x="292.8" y="50.3" width="683.2" height="24.65" shape-rendering="crispEdges"/><rect fill="#272822" x="0" y="74.7" width="97.6" height="24.65" shape-rendering="crispEdges"/><rect fill="#272822" x="97.6" y="74.7" width="48.8" height="24.65" shape-rendering="crispEdges"/><rect fill="#272822" x="146.4" y="74.7" width="12.2" height="24.65" shape-rendering="crispEdges"/><rect fill="#272822" x="158.6" y="74.7" width="12.2" height="24.65" shape-rendering="crispEdges"/><rect fill="#272822" x="170.8" y="74.7" width="61" height="24.65" shape-rendering="crispEdges"/><rect fill="#272822" x="231.8" y="74.7" width="12.2" height="24.65" shape-rendering="crispEdges"/><rect fill="#272822" x="244" y="74.7" width="48.8" height="24.65" shape-rendering="crispEdges"/><rect fill="#272822" x="292.8" y="74.7" width="683.2" height="24.65" shape-rendering="crispEdges"/><rect fill="#272822" x="0" y="99.1" width="97.6" height="24.65" shape-rendering="crispEdges"/><rect fill="#272822" x="97.6" y="99.1" width="85.4" height="24.65" shape-rendering="crispEdges"/><rect fill="#272822" x="183" y="99.1" width="12.2" height="24.65" shape-rendering="crispEdges"/><rect fill="#272822" x="195.2" y="99.1" width="61" height="24.65" shape-rendering="crispEdges"/><rect fill="#272822" x="256.2" y="99.1" width="12.2" height="24.65" shape-rendering="crispEdges"/><rect fill="#272822" x="268.4" y="99.1" width="12.2" height="24.65" shape-rendering="crispEdges"/><rect fill="#272822" x="280.6" y="99.1" width="109.8" height="24.65" shape-rendering="crispEdges"/><rect fill="#272822" x="390.4" y="99.1" width="134.2" height="24.65" shape-rendering="crispEdges"/><rect fill="#272822" x="524.6" y="99.1" width="12.2" height="24.65" shape-rendering="crispEdges"/><rect fill="#272822" x="536.8" y="99.1" width="36.6" height="24.65" shape-rendering="crispEdges"/><rect fill="#272822" x="573.4" y="99.1" width="402.6" height="24.65" shape-rendering="crispEdges"/><rect fill="#272822" x="0" y="123.5" width="97.6" height="24.65" shape-rendering="crispEdges"/><rect fill="#272822" x="97.6" y="123.5" width="122" height="24.65" shape-rendering="crispEdges"/><rect fill="#272822" x="219.6" y="123.5" width="12.2" height="24.65" shape-rendering="crispEdges"/><rect fill="#272822" x="231.8" y="123.5" width="73.2" height="24.65" shape-rendering="crispEdges"/><rect fill="#272822" x="305" y="123.5" width="12.2" height="24.65" shape-rendering="crispEdges"/><rect fill="#272822" x="317.2" y="123.5" width="12.2" height="24.65" shape-rendering="crispEdges"/><rect fill="#272822" x="329.4" y="123.5" width="109.8" height="24.65" shape-rendering="crispEdges"/><rect fill="#272822" x="439.2" y="123.5" width="134.2" height="24.65" shape-rendering="crispEdges"/><rect fill="#272822" x="573.4" y="123.5" width="12.2" height="24.65" shape-rendering="crispEdges"/><rect fill="#272822" x="585.6" y="123.5" width="36.6" height="24.65" shape-rendering="crispEdges"/><rect fill="#272822" x="622.2" y="123.5" width="353.8" height="24.65" shape-rendering="crispEdges"/><rect fill="#272822" x="0" y="147.9" width="976" height="24.65" shape-rendering="crispEdges"/>
    <g class="terminal-951283489-matrix">
    <text class="terminal-951283489-r1" x="0" y="20" textLength="85.4" clip-path="url(#terminal-951283489-line-0)">Current</text><text class="terminal-951283489-r1" x="97.6" y="20" textLength="48.8" clip-path="url(#terminal-951283489-line-0)">user</text><text class="terminal-951283489-r1" x="146.4" y="20" textLength="12.2" clip-path="url(#terminal-951283489-line-0)">:</text><text class="terminal-951283489-r1" x="170.8" y="20" textLength="122" clip-path="url(#terminal-951283489-line-0)">myusername</text><text class="terminal-951283489-r2" x="976" y="20" textLength="12.2" clip-path="url(#terminal-951283489-line-0)">
</text><text class="terminal-951283489-r1" x="0" y="44.4" textLength="48.8" clip-path="url(#terminal-951283489-line-1)">INFO</text><text class="terminal-951283489-r1" x="97.6" y="44.4" textLength="48.8" clip-path="url(#terminal-951283489-line-1)">User</text><text class="terminal-951283489-r1" x="158.6" y="44.4" textLength="48.8" clip-path="url(#terminal-951283489-line-1)">Name</text><text class="terminal-951283489-r1" x="207.4" y="44.4" textLength="12.2" clip-path="url(#terminal-951283489-line-1)">:</text><text class="terminal-951283489-r1" x="231.8" y="44.4" textLength="122" clip-path="url(#terminal-951283489-line-1)">myusername</text><text class="terminal-951283489-r2" x="976" y="44.4" textLength="12.2" clip-path="url(#terminal-951283489-line-1)">
</text><text class="terminal-951283489-r1" x="97.6" y="68.8" textLength="48.8" clip-path="url(#terminal-951283489-line-2)">Role</text><text class="terminal-951283489-r1" x="146.4" y="68.8" textLength="12.2" clip-path="url(#terminal-951283489-line-2)">:</text><text class="terminal-951283489-r1" x="170.8" y="68.8" textLength="122" clip-path="url(#terminal-951283489-line-2)">Researcher</text><text class="terminal-951283489-r2" x="976" y="68.8" textLength="12.2" clip-path="url(#terminal-951283489-line-2)">
</text><text class="terminal-951283489-r1" x="97.6" y="93.2" textLength="48.8" clip-path="url(#terminal-951283489-line-3)">Name</text><text class="terminal-951283489-r1" x="146.4" y="93.2" textLength="12.2" clip-path="url(#terminal-951283489-line-3)">:</text><text class="terminal-951283489-r1" x="170.8" y="93.2" textLength="61" clip-path="url(#terminal-951283489-line-3)">First</text><text class="terminal-951283489-r1" x="244" y="93.2" textLength="48.8" clip-path="url(#terminal-951283489-line-3)">Last</text><text class="terminal-951283489-r2" x="976" y="93.2" textLength="12.2" clip-path="url(#terminal-951283489-line-3)">
</text><text class="terminal-951283489-r1" x="97.6" y="117.6" textLength="85.4" clip-path="url(#terminal-951283489-line-4)">Primary</text><text class="terminal-951283489-r1" x="195.2" y="117.6" textLength="61" clip-path="url(#terminal-951283489-line-4)">Email</text><text class="terminal-951283489-r1" x="256.2" y="117.6" textLength="12.2" clip-path="url(#terminal-951283489-line-4)">:</text><text class="terminal-951283489-r1" x="280.6" y="117.6" textLength="109.8" clip-path="url(#terminal-951283489-line-4)">someemail</text><text class="terminal-951283489-r3" x="390.4" y="117.6" textLength="134.2" clip-path="url(#terminal-951283489-line-4)">@somedomain</text><text class="terminal-951283489-r4" x="524.6" y="117.6" textLength="12.2" clip-path="url(#terminal-951283489-line-4)">.</text><text class="terminal-951283489-r1" x="536.8" y="117.6" textLength="36.6" clip-path="url(#terminal-951283489-line-4)">com</text><text class="terminal-951283489-r2" x="976" y="117.6" textLength="12.2" clip-path="url(#terminal-951283489-line-4)">
</text><text class="terminal-951283489-r1" x="97.6" y="142" textLength="122" clip-path="url(#terminal-951283489-line-5)">Associated</text><text class="terminal-951283489-r1" x="231.8" y="142" textLength="73.2" clip-path="url(#terminal-951283489-line-5)">Emails</text><text class="terminal-951283489-r1" x="305" y="142" textLength="12.2" clip-path="url(#terminal-951283489-line-5)">:</text><text class="terminal-951283489-r1" x="329.4" y="142" textLength="109.8" clip-path="url(#terminal-951283489-line-5)">someemail</text><text class="terminal-951283489-r3" x="439.2" y="142" textLength="134.2" clip-path="url(#terminal-951283489-line-5)">@somedomain</text><text class="terminal-951283489-r4" x="573.4" y="142" textLength="12.2" clip-path="url(#terminal-951283489-line-5)">.</text><text class="terminal-951283489-r1" x="585.6" y="142" textLength="36.6" clip-path="url(#terminal-951283489-line-5)">com</text><text class="terminal-951283489-r2" x="976" y="142" textLength="12.2" clip-path="url(#terminal-951283489-line-5)">
</text><text class="terminal-951283489-r2" x="976" y="166.4" textLength="12.2" clip-path="url(#terminal-951283489-line-6)">
</text>
    </g>
    </g>
</svg>
